<?xml version="1.0" encoding="UTF-8"?>
<svg version="1.1" xmlns="http://www.w3.org/2000/svg" width="512" height="512">
<path d="M0 0 C0.79242096 0.00182281 1.58484192 0.00364563 2.40127563 0.00552368 C14.24375183 0.0513663 25.76805672 0.42638918 37.3125 3.3125 C38.02277344 3.48942383 38.73304688 3.66634766 39.46484375 3.84863281 C44.48134775 5.14299815 49.40234437 6.66327847 54.3125 8.3125 C54.97846191 8.53276855 55.64442383 8.75303711 56.33056641 8.97998047 C78.95462603 16.58020738 98.88971395 29.23539832 115.89404297 45.93359375 C117.19741518 47.20062409 118.53667117 48.43046454 119.87890625 49.65625 C140.01440693 68.53126188 153.39101181 95.31583144 160.6875 121.625 C160.92621826 122.48303223 161.16493652 123.34106445 161.41088867 124.22509766 C164.89096456 137.50350658 165.72047879 150.66381697 165.6875 164.3125 C165.68728851 165.12376343 165.68707703 165.93502686 165.68685913 166.77087402 C165.65258764 179.9811532 164.6435764 192.4808762 161.3125 205.3125 C161.13058105 206.05757812 160.94866211 206.80265625 160.76123047 207.5703125 C152.61830601 240.52041256 133.51181666 266.3049146 110.3125 290.3125 C83.78727742 317.89873149 76.23527492 353.00816364 76.14383507 390.14447021 C76.13649182 392.51062104 76.12070579 394.87658469 76.10249329 397.24267578 C76.0508149 403.95798316 76.00209196 410.67316946 75.98657227 417.38867188 C75.97638651 421.53000007 75.94682224 425.67082368 75.90525246 429.81195068 C75.89311156 431.36810461 75.88778948 432.92433014 75.89005089 434.48052979 C75.90471961 447.85566 73.99049896 460.44348105 67.75 472.5 C67.41411865 473.15871094 67.0782373 473.81742187 66.73217773 474.49609375 C62.98331214 481.46852771 57.97174953 486.84952502 52.3125 492.3125 C51.60609375 493.04984375 50.8996875 493.7871875 50.171875 494.546875 C37.02838023 507.48970573 18.27396915 512.63466367 0.3125 512.8125 C-19.60618561 512.61528529 -37.90326795 506.2908047 -52.078125 492.015625 C-52.93921875 491.12359375 -53.8003125 490.2315625 -54.6875 489.3125 C-55.79351562 488.25289063 -55.79351562 488.25289063 -56.921875 487.171875 C-61.2223607 482.8047151 -64.15727243 478.03711588 -66.9375 472.625 C-67.25493164 472.01438721 -67.57236328 471.40377441 -67.89941406 470.7746582 C-73.88866629 458.44819772 -75.27270022 446.71205048 -75.2265625 433.27734375 C-75.23651104 431.66612946 -75.24846767 430.05492648 -75.26229858 428.44374084 C-75.29438079 424.23181275 -75.30502307 420.02014364 -75.30914307 415.80810547 C-75.31899871 408.29774559 -75.36001525 400.78750425 -75.4140625 393.27734375 C-75.41952087 392.47805513 -75.42497925 391.67876652 -75.43060303 390.85525703 C-75.74036796 351.05677923 -84.29993826 315.25112875 -113.375 286.5 C-114.48858262 285.40913376 -115.60313147 284.3192528 -116.71875 283.23046875 C-120.26736649 279.76481556 -123.55324717 276.15746776 -126.6875 272.3125 C-127.80318359 270.97251953 -127.80318359 270.97251953 -128.94140625 269.60546875 C-142.63490735 252.5689533 -152.8589421 232.77299704 -159 211.8125 C-159.34575073 210.64098389 -159.34575073 210.64098389 -159.69848633 209.44580078 C-163.53447402 195.51340333 -165.19690625 181.55789686 -165.07861328 167.13525391 C-165.06249812 164.812229 -165.07860347 162.49094261 -165.09765625 160.16796875 C-165.11879711 145.74515939 -163.0856128 131.66128408 -159 117.8125 C-158.74581299 116.94214111 -158.49162598 116.07178223 -158.22973633 115.17504883 C-150.72076132 90.44105604 -137.3888178 68.9922826 -119.6875 50.3125 C-118.84574219 49.41789062 -118.00398438 48.52328125 -117.13671875 47.6015625 C-96.86809234 26.65829295 -69.81408142 11.73814568 -41.625 4.5625 C-40.84672852 4.36374268 -40.06845703 4.16498535 -39.26660156 3.96020508 C-26.20988443 0.8146742 -13.36524242 -0.06387484 0 0 Z " fill="#FDD742" transform="translate(255.6875,-0.3125)"/>
<path d="M0 0 C20.95987654 0 20.95987654 0 27.5625 1.1875 C28.34149658 1.31987061 29.12049316 1.45224121 29.9230957 1.58862305 C38.15017451 3.07121207 46.08331705 5.34094703 54 8 C54.66596191 8.22026855 55.33192383 8.44053711 56.01806641 8.66748047 C78.64212603 16.26770738 98.57721395 28.92289832 115.58154297 45.62109375 C116.88491518 46.88812409 118.22417117 48.11796454 119.56640625 49.34375 C139.70190693 68.21876188 153.07851181 95.00333144 160.375 121.3125 C160.61371826 122.17053223 160.85243652 123.02856445 161.09838867 123.91259766 C164.57846456 137.19100658 165.40797879 150.35131697 165.375 164 C165.37478851 164.81126343 165.37457703 165.62252686 165.37435913 166.45837402 C165.34008764 179.6686532 164.3310764 192.1683762 161 205 C160.81808105 205.74507812 160.63616211 206.49015625 160.44873047 207.2578125 C152.30580601 240.20791256 133.19931666 265.9924146 110 290 C82.83190113 318.25482283 77.5500841 351.74873845 75 390 C50.25 390 25.5 390 0 390 C0 350.4 0 310.8 0 270 C-4.95 270 -9.9 270 -15 270 C-15 260.1 -15 250.2 -15 240 C-10.05 240 -5.1 240 0 240 C0 230.1 0 220.2 0 210 C-4.95 210 -9.9 210 -15 210 C-15.77832352 182.26141452 -15.77832352 182.26141452 -11 172 C-10.49082031 170.8965625 -9.98164063 169.793125 -9.45703125 168.65625 C-4.53111767 158.82696706 1.81942188 151.47636282 10.3359375 144.60546875 C13.40069496 141.64862528 13.96553486 139.35613982 14.375 135.125 C14.26237839 130.80515691 12.7885869 128.33081214 10 125 C5.73089328 121.26566461 1.56745353 120.72590998 -4 121 C-7.91148504 122.16326693 -10.39895602 124.07564563 -12.6484375 127.53515625 C-14.40493055 132.0380734 -14.56029242 136.08557278 -14.6875 140.875 C-14.790625 143.88625 -14.89375 146.8975 -15 150 C-24.9 150 -34.8 150 -45 150 C-45.45999348 131.25526559 -45.44676324 117.08505859 -31.8984375 102.78125 C-22.63892192 94.01252146 -12.70900652 90 0 90 C0 60.3 0 30.6 0 0 Z " fill="#F9BE2C" transform="translate(256,0)"/>
<path d="M0 0 C49.5 0 99 0 150 0 C150 67.57690153 150 67.57690153 142.4375 82.1875 C141.93367798 83.17556641 141.93367798 83.17556641 141.41967773 84.18359375 C137.67081214 91.15602771 132.65924953 96.53702502 127 102 C126.29359375 102.73734375 125.5871875 103.4746875 124.859375 104.234375 C111.71588023 117.17720573 92.96146915 122.32216367 75 122.5 C55.08131439 122.30278529 36.78423205 115.9783047 22.609375 101.703125 C21.74828125 100.81109375 20.8871875 99.9190625 20 99 C19.26265625 98.29359375 18.5253125 97.5871875 17.765625 96.859375 C13.4651393 92.4922151 10.53022757 87.72461588 7.75 82.3125 C7.27385254 81.39658081 7.27385254 81.39658081 6.78808594 80.4621582 C-5.75561649 54.64600512 0 29.63354072 0 0 Z " fill="#EDF5FF" transform="translate(181,390)"/>
<path d="M0 0 C24.75 0 49.5 0 75 0 C75.0825 9.425625 75.165 18.85125 75.25 28.5625 C75.28641602 31.50615479 75.32283203 34.44980957 75.36035156 37.48266602 C75.54321929 62.51703843 75.54321929 62.51703843 71 74 C70.7023877 74.80042725 70.40477539 75.60085449 70.09814453 76.42553711 C69.29974049 78.40965122 68.42018963 80.28896333 67.4375 82.1875 C67.10161865 82.84621094 66.7657373 83.50492187 66.41967773 84.18359375 C62.67081214 91.15602771 57.65924953 96.53702502 52 102 C51.29359375 102.73734375 50.5871875 103.4746875 49.859375 104.234375 C36.55940897 117.33128812 18.05975725 122 0 122 C0 81.74 0 41.48 0 0 Z " fill="#D5E8FE" transform="translate(256,390)"/>
<path d="M0 0 C6.13494043 5.07606281 10.41400597 10.9173825 14 18 C14.34160156 18.67289063 14.68320312 19.34578125 15.03515625 20.0390625 C19.22378545 30.13073657 18.15968445 43.37276566 14.2578125 53.359375 C10.15452445 61.97373128 4.17295657 69.39096053 -3.6875 74.875 C-9.06693533 79.8182649 -12.01112166 87.69072483 -12.31640625 94.88671875 C-12.35451416 95.73194092 -12.39262207 96.57716309 -12.43188477 97.44799805 C-12.47498779 98.51703369 -12.51809082 99.58606934 -12.5625 100.6875 C-12.706875 104.090625 -12.85125 107.49375 -13 111 C-22.9 111 -32.8 111 -43 111 C-43.60146294 82.88160772 -43.60146294 82.88160772 -39 73 C-38.23623047 71.34484375 -38.23623047 71.34484375 -37.45703125 69.65625 C-32.53111767 59.82696706 -26.18057812 52.47636282 -17.6640625 45.60546875 C-14.59930504 42.64862528 -14.03446514 40.35613982 -13.625 36.125 C-13.73762161 31.80515691 -15.2114131 29.33081214 -18 26 C-22.26910672 22.26566461 -26.43254647 21.72590998 -32 22 C-35.91148504 23.16326693 -38.39895602 25.07564563 -40.6484375 28.53515625 C-42.40493055 33.0380734 -42.56029242 37.08557278 -42.6875 41.875 C-42.790625 44.88625 -42.89375 47.8975 -43 51 C-52.9 51 -62.8 51 -73 51 C-73.45999348 32.25526559 -73.44676324 18.08505859 -59.8984375 3.78125 C-42.99128831 -12.22976054 -18.79366734 -13.58689721 0 0 Z " fill="#2A376C" transform="translate(284,99)"/>
<path d="M0 0 C3.52344644 1.6586188 5.79901878 3.56657308 8.546875 6.3515625 C9.81337891 7.62773438 9.81337891 7.62773438 11.10546875 8.9296875 C12.41451172 10.26386719 12.41451172 10.26386719 13.75 11.625 C14.63816406 12.5221875 15.52632813 13.419375 16.44140625 14.34375 C18.63216969 16.55807004 20.81812763 18.77692435 23 21 C21.51657 24.44677 19.56949812 26.67343301 16.91748047 29.30957031 C16.07675995 30.15013977 15.23603943 30.99070923 14.36984253 31.85675049 C13.46146637 32.75480408 12.55309021 33.65285767 11.6171875 34.578125 C10.68778351 35.5046991 9.75837952 36.43127319 8.80081177 37.38592529 C6.3359615 39.84315789 3.86516334 42.29432361 1.39306641 44.7442627 C-1.13090765 47.24773809 -3.64919388 49.75692063 -6.16796875 52.265625 C-11.10643597 57.18267525 -16.051212 62.09333788 -21 67 C-24.52344644 65.3413812 -26.79901878 63.43342692 -29.546875 60.6484375 C-30.39121094 59.79765625 -31.23554688 58.946875 -32.10546875 58.0703125 C-32.97816406 57.18085937 -33.85085938 56.29140625 -34.75 55.375 C-36.08224609 54.02921875 -36.08224609 54.02921875 -37.44140625 52.65625 C-39.63216969 50.44192996 -41.81812763 48.22307565 -44 46 C-42.51657 42.55323 -40.56949812 40.32656699 -37.91748047 37.69042969 C-36.65639969 36.4295755 -36.65639969 36.4295755 -35.36984253 35.14324951 C-34.46146637 34.24519592 -33.55309021 33.34714233 -32.6171875 32.421875 C-31.68778351 31.4953009 -30.75837952 30.56872681 -29.80081177 29.61407471 C-27.3359615 27.15684211 -24.86516334 24.70567639 -22.39306641 22.2557373 C-19.86909235 19.75226191 -17.35080612 17.24307937 -14.83203125 14.734375 C-9.89356403 9.81732475 -4.948788 4.90666212 0 0 Z " fill="#FABE2B" transform="translate(474,44)"/>
<path d="M0 0 C3.44677 1.48343 5.67343301 3.43050188 8.30957031 6.08251953 C9.5704245 7.34360031 9.5704245 7.34360031 10.85675049 8.63015747 C11.75480408 9.53853363 12.65285767 10.44690979 13.578125 11.3828125 C14.5046991 12.31221649 15.43127319 13.24162048 16.38592529 14.19918823 C18.84315789 16.6640385 21.29432361 19.13483666 23.7442627 21.60693359 C26.24773809 24.13090765 28.75692063 26.64919388 31.265625 29.16796875 C36.18267525 34.10643597 41.09333788 39.051212 46 44 C44.3413812 47.52344644 42.43342692 49.79901878 39.6484375 52.546875 C38.79765625 53.39121094 37.946875 54.23554687 37.0703125 55.10546875 C36.18085937 55.97816406 35.29140625 56.85085937 34.375 57.75 C33.4778125 58.63816406 32.580625 59.52632812 31.65625 60.44140625 C29.44192996 62.63216969 27.22307565 64.81812763 25 67 C21.55323 65.51657 19.32656699 63.56949812 16.69042969 60.91748047 C15.84986023 60.07675995 15.00929077 59.23603943 14.14324951 58.36984253 C13.24519592 57.46146637 12.34714233 56.55309021 11.421875 55.6171875 C10.4953009 54.68778351 9.56872681 53.75837952 8.61407471 52.80081177 C6.15684211 50.3359615 3.70567639 47.86516334 1.2557373 45.39306641 C-1.24773809 42.86909235 -3.75692063 40.35080612 -6.265625 37.83203125 C-11.18267525 32.89356403 -16.09333788 27.948788 -21 23 C-19.3413812 19.47655356 -17.43342692 17.20098122 -14.6484375 14.453125 C-13.79765625 13.60878906 -12.946875 12.76445313 -12.0703125 11.89453125 C-11.18085938 11.02183594 -10.29140625 10.14914063 -9.375 9.25 C-8.4778125 8.36183594 -7.580625 7.47367188 -6.65625 6.55859375 C-4.44192996 4.36783031 -2.22307565 2.18187237 0 0 Z " fill="#FED743" transform="translate(36,44)"/>
<path d="M0 0 C3.37632331 1.46801828 5.6188929 3.35100248 8.23364258 5.92724609 C9.05741898 6.7350351 9.88119537 7.5428241 10.72993469 8.37509155 C11.60925156 9.24904572 12.48856842 10.12299988 13.39453125 11.0234375 C14.75465584 12.37001938 14.75465584 12.37001938 16.14225769 13.74380493 C18.05555303 15.64259757 19.96628824 17.54365053 21.8737793 19.44824219 C24.32132955 21.89038879 26.78465644 24.31594043 29.25217152 26.73789024 C31.6022951 29.05118765 33.9347403 31.38218148 36.26953125 33.7109375 C37.15896927 34.5808432 38.04840729 35.4507489 38.96479797 36.34701538 C39.77281357 37.1611087 40.58082916 37.97520203 41.41333008 38.81396484 C42.13184647 39.52741058 42.85036285 40.24085632 43.59065247 40.97592163 C45 43 45 43 44.83630371 45.12324524 C42.75901344 49.78490625 38.24855486 53.26188047 34.6875 56.8125 C33.81931641 57.70904297 32.95113281 58.60558594 32.05664062 59.52929688 C30.7969043 60.79290039 30.7969043 60.79290039 29.51171875 62.08203125 C28.74303467 62.85780518 27.97435059 63.6335791 27.18237305 64.43286133 C25 66 25 66 23.13294983 65.8460083 C20.3341445 64.73589661 18.80984278 63.16957027 16.69042969 61.03100586 C15.84986023 60.19020981 15.00929077 59.34941376 14.14324951 58.48313904 C13.24519592 57.56960159 12.34714233 56.65606415 11.421875 55.71484375 C10.4953009 54.78402481 9.56872681 53.85320587 8.61407471 52.8941803 C6.15460013 50.42326879 3.70426899 47.94348031 1.2557373 45.46173096 C-1.24592051 42.92934747 -3.75612622 40.4054687 -6.265625 37.88085938 C-11.18548013 32.92886047 -16.09572753 27.96743051 -21 23 C-19.3413812 19.47655356 -17.43342692 17.20098122 -14.6484375 14.453125 C-13.79765625 13.60878906 -12.946875 12.76445312 -12.0703125 11.89453125 C-11.18085938 11.02183594 -10.29140625 10.14914063 -9.375 9.25 C-8.4778125 8.36183594 -7.580625 7.47367188 -6.65625 6.55859375 C-4.44192996 4.36783031 -2.22307565 2.18187237 0 0 Z " fill="#FABC2B" transform="translate(451,219)"/>
<path d="M0 0 C3.52344644 1.6586188 5.79901878 3.56657308 8.546875 6.3515625 C9.81337891 7.62773437 9.81337891 7.62773437 11.10546875 8.9296875 C12.41451172 10.26386719 12.41451172 10.26386719 13.75 11.625 C14.63816406 12.5221875 15.52632812 13.419375 16.44140625 14.34375 C18.63216969 16.55807004 20.81812763 18.77692435 23 21 C21.53198172 24.37632331 19.64899752 26.6188929 17.07275391 29.23364258 C16.2649649 30.05741898 15.4571759 30.88119537 14.62490845 31.72993469 C13.75095428 32.60925156 12.87700012 33.48856842 11.9765625 34.39453125 C10.62998062 35.75465584 10.62998062 35.75465584 9.25619507 37.14225769 C7.35740243 39.05555303 5.45634947 40.96628824 3.55175781 42.8737793 C1.10961121 45.32132955 -1.31594043 47.78465644 -3.73789024 50.25217152 C-6.05118765 52.6022951 -8.38218148 54.9347403 -10.7109375 57.26953125 C-11.5808432 58.15896927 -12.4507489 59.04840729 -13.34701538 59.96479797 C-14.1611087 60.77281357 -14.97520203 61.58082916 -15.81396484 62.41333008 C-16.52741058 63.13184647 -17.24085632 63.85036285 -17.97592163 64.59065247 C-20 66 -20 66 -22.12324524 65.83630371 C-26.78490625 63.75901344 -30.26188047 59.24855486 -33.8125 55.6875 C-34.70904297 54.81931641 -35.60558594 53.95113281 -36.52929688 53.05664062 C-37.37169922 52.21681641 -38.21410156 51.37699219 -39.08203125 50.51171875 C-39.85780518 49.74303467 -40.6335791 48.97435059 -41.43286133 48.18237305 C-43 46 -43 46 -42.8460083 44.13294983 C-41.73589661 41.3341445 -40.16957027 39.80984278 -38.03100586 37.69042969 C-37.19020981 36.84986023 -36.34941376 36.00929077 -35.48313904 35.14324951 C-34.56960159 34.24519592 -33.65606415 33.34714233 -32.71484375 32.421875 C-31.31861534 31.03201385 -31.31861534 31.03201385 -29.8941803 29.61407471 C-27.42326879 27.15460013 -24.94348031 24.70426899 -22.46173096 22.2557373 C-19.92934747 19.75407949 -17.4054687 17.24387378 -14.88085938 14.734375 C-9.92886047 9.81451987 -4.96743051 4.90427247 0 0 Z " fill="#FED743" transform="translate(59,219)"/>
<path d="M0 0 C0 9.9 0 19.8 0 30 C-2.64 30.99 -5.28 31.98 -8 33 C-11.62853431 36.08811431 -13.72645742 38.22261582 -14.20532227 43.0847168 C-14.24197998 43.86500244 -14.2786377 44.64528809 -14.31640625 45.44921875 C-14.35451416 46.21322998 -14.39262207 46.97724121 -14.43188477 47.7644043 C-14.49653931 49.21133667 -14.49653931 49.21133667 -14.5625 50.6875 C-14.706875 53.760625 -14.85125 56.83375 -15 60 C-24.9 60 -34.8 60 -45 60 C-45.45999348 41.25526559 -45.44676324 27.08505859 -31.8984375 12.78125 C-22.63892192 4.01252146 -12.70900652 0 0 0 Z " fill="#48568B" transform="translate(256,90)"/>
<path d="M0 0 C20.13 0 40.26 0 61 0 C61 9.9 61 19.8 61 30 C40.87 30 20.74 30 0 30 C0 20.1 0 10.2 0 0 Z " fill="#FABE2C" transform="translate(451,150)"/>
<path d="M0 0 C20.13 0 40.26 0 61 0 C61 9.9 61 19.8 61 30 C40.87 30 20.74 30 0 30 C0 20.1 0 10.2 0 0 Z " fill="#FED843" transform="translate(0,150)"/>
<path d="M0 0 C9.9 0 19.8 0 30 0 C30 9.9 30 19.8 30 30 C20.1 30 10.2 30 0 30 C0 20.1 0 10.2 0 0 Z " fill="#29376D" transform="translate(241,240)"/>
<path d="M0 0 C0 17.82 0 35.64 0 54 C-4.95 54 -9.9 54 -15 54 C-15.5320408 35.03865692 -15.77147144 16.30204102 -2.34765625 1.1328125 C-1 0 -1 0 0 0 Z " fill="#48578B" transform="translate(256,156)"/>
<path d="M0 0 C4.95 0 9.9 0 15 0 C15 9.9 15 19.8 15 30 C10.05 30 5.1 30 0 30 C0 20.1 0 10.2 0 0 Z " fill="#47568C" transform="translate(241,240)"/>
<path d="M0 0 C9.00846906 2.25211726 9.00846906 2.25211726 11.4375 5.5 C11.91058594 6.1084375 12.38367188 6.716875 12.87109375 7.34375 C15.41586122 11.07724968 15.55566736 14.59612887 15 19 C12.0565323 25.28831736 6.29341783 29.66113293 1 34 C0.67 34 0.34 34 0 34 C0 22.78 0 11.56 0 0 Z " fill="#F7BC2D" transform="translate(256,120)"/>
</svg>
